<?xml version="1.0" encoding="UTF-8" standalone="no"?>
<svg
   version="1.1"
   id="Layer_1"
   x="0px"
   y="0px"
   width="30.00008"
   height="22.50025"
   viewBox="0 0 30.00008 22.50025"
   inkscape:version="1.3.2 (091e20e, 2023-11-25, custom)"
   sodipodi:docname="pwsh.svg"
   xmlns:inkscape="http://www.inkscape.org/namespaces/inkscape"
   xmlns:sodipodi="http://sodipodi.sourceforge.net/DTD/sodipodi-0.dtd"
   xmlns="http://www.w3.org/2000/svg"
   xmlns:svg="http://www.w3.org/2000/svg">
  <sodipodi:namedview
     id="namedview25"
     pagecolor="#ffffff"
     bordercolor="#666666"
     borderopacity="1.0"
     inkscape:showpageshadow="2"
     inkscape:pageopacity="0.0"
     inkscape:pagecheckerboard="0"
     inkscape:deskcolor="#d1d1d1"
     showgrid="false"
     inkscape:zoom="5.2443862"
     inkscape:cx="15.063727"
     inkscape:cy="11.536145"
     inkscape:window-width="2560"
     inkscape:window-height="1334"
     inkscape:window-x="3061"
     inkscape:window-y="-11"
     inkscape:window-maximized="1"
     inkscape:current-layer="Layer_1" />
  <metadata
     id="metadata3787" />
  <defs
     id="defs3785" />
  <linearGradient
     id="SVGID_1_"
     gradientUnits="userSpaceOnUse"
     x1="95.266701"
     y1="91.9263"
     x2="26.700001"
     y2="30.68"
     gradientTransform="matrix(0.25,0,0,0.25,-1.0005843,-4.75)">
    <stop
       offset="0"
       style="stop-color:#A9C8FF"
       id="stop3750" />
    <stop
       offset="1"
       style="stop-color:#C7E6FF"
       id="stop3752" />
  </linearGradient>
  <path
     d="m 1.2576657,22.5 c -0.40825002,0 -0.76150002,-0.1595 -0.99450002,-0.4495 -0.238,-0.29625 -0.31975,-0.7035 -0.224,-1.1175 L 4.5356657,1.45525 C 4.7241657,0.63925 5.5149157,0 6.3366657,0 H 28.742415 c 0.4085,0 0.76175,0.1595 0.9945,0.4495 0.238,0.296 0.31975,0.7035 0.224,1.1175 l -4.4965,19.47775 c -0.18825,0.816 -0.979249,1.4555 -1.800749,1.4555 H 1.2576657 Z"
     id="path3755"
     style="clip-rule:evenodd;opacity:0.8;fill:url(#SVGID_1_);fill-rule:evenodd;stroke-width:0.25" />
  <g
     id="g3772"
     transform="matrix(0.25,0,0,0.25,-1.0005843,-4.75)">
    <g
       id="g3770">
      <linearGradient
         id="SVGID_2_"
         gradientUnits="userSpaceOnUse"
         x1="26.5854"
         y1="30.7778"
         x2="93.585403"
         y2="90.277802">
        <stop
           offset="0"
           style="stop-color:#2D4664"
           id="stop3757" />
        <stop
           offset="0.1689"
           style="stop-color:#29405B"
           id="stop3759" />
        <stop
           offset="0.4445"
           style="stop-color:#1E2F43"
           id="stop3761" />
        <stop
           offset="0.7902"
           style="stop-color:#0C131B"
           id="stop3763" />
        <stop
           offset="1"
           style="stop-color:#000000"
           id="stop3765" />
      </linearGradient>
      <path
         d="M 118.5,20 H 29.634 c -2.769,0 -5.53,2.259 -6.168,5.045 L 5.632,102.955 C 4.995,105.742 6.722,108 9.491,108 h 88.865 c 2.769,0 5.53,-2.258 6.168,-5.045 L 122.358,25.044 C 122.996,22.259 121.268,20 118.5,20 Z"
         id="path3768"
         style="clip-rule:evenodd;fill:url(#SVGID_2_);fill-rule:evenodd" />
    </g>
  </g>
  <path
     d="m 15.040666,17.1395 h 5.40325 c 0.62825,0 1.1375,0.53125 1.1375,1.1865 0,0.65525 -0.50925,1.18675 -1.1375,1.18675 h -5.40325 c -0.62825,0 -1.1375,-0.53125 -1.1375,-1.18675 0,-0.65525 0.50925,-1.1865 1.1375,-1.1865 z"
     id="path3774"
     style="clip-rule:evenodd;fill:#2c5591;fill-rule:evenodd;stroke-width:0.25" />
  <path
     d="m 18.545416,11.86375 c -0.093,0.18725 -0.286,0.39375 -0.62725,0.6335 L 7.8899157,19.6995 c -0.5475,0.39775 -1.3335,0.25025 -1.75525,-0.32975 -0.42175,-0.58 -0.32,-1.3725 0.2275,-1.7705 l 9.0432503,-6.5485 v -0.1345 L 9.7234157,4.87175 c -0.4635,-0.493 -0.41525,-1.29025 0.10775,-1.781 0.5230003,-0.4905 1.3225003,-0.4885 1.7860003,0.0045 l 6.81775,7.253 c 0.387,0.41175 0.41575,1.03525 0.1105,1.5155 z"
     id="path3776"
     style="clip-rule:evenodd;fill:#2c5591;fill-rule:evenodd;stroke-width:0.25" />
  <path
     d="m 18.295416,11.61375 c -0.093,0.18725 -0.286,0.39375 -0.62725,0.6335 L 7.6399157,19.4495 c -0.5475,0.39775 -1.3335,0.25025 -1.75525,-0.32975 -0.42175,-0.58 -0.32,-1.3725 0.2275,-1.7705 l 9.0432503,-6.5485 v -0.1345 L 9.4734157,4.62175 c -0.4635,-0.493 -0.41525,-1.29025 0.10775,-1.781 0.5230003,-0.4905 1.3225003,-0.4885 1.7860003,0.0045 l 6.81775,7.253 c 0.387,0.41175 0.41575,1.03525 0.1105,1.5155 z"
     id="path3778"
     style="clip-rule:evenodd;fill:#ffffff;fill-rule:evenodd;stroke-width:0.25" />
  <path
     d="m 14.886916,17 h 5.40325 c 0.62825,0 1.1375,0.50375 1.1375,1.125 0,0.62125 -0.50925,1.125 -1.1375,1.125 h -5.40325 c -0.62825,0 -1.1375,-0.50375 -1.1375,-1.125 0,-0.62125 0.50925,-1.125 1.1375,-1.125 z"
     id="path3780"
     style="clip-rule:evenodd;fill:#ffffff;fill-rule:evenodd;stroke-width:0.25" />
</svg>
